<svg xmlns="http://www.w3.org/2000/svg" xmlns:xlink="http://www.w3.org/1999/xlink" id="body_1" width="20" height="20">

<g transform="matrix(1 0 0 1 0 0)">
    <path d="M1 4.5C 1 1.87479 1.02811 1 4.5 1C 7.97189 1 8 1.87479 8 4.5C 8 7.12521 8.01107 8 4.5 8C 0.988927 8 1 7.12521 1 4.5z" stroke="#DD0077" stroke-width="2" stroke-linecap="square" fill="none"/>
    <path d="M12 4.5C 12 1.87479 12.0281 1 15.5 1C 18.9719 1 19 1.87479 19 4.5C 19 7.12521 19.0111 8 15.5 8C 11.9889 8 12 7.12521 12 4.5z" stroke="#DD0077" stroke-width="2" stroke-linecap="square" fill="none"/>
    <path d="M1 15.5C 1 12.8748 1.02811 12 4.5 12C 7.97189 12 8 12.8748 8 15.5C 8 18.1252 8.01107 19 4.5 19C 0.988927 19 1 18.1252 1 15.5z" stroke="#DD0077" stroke-width="2" stroke-linecap="square" fill="none"/>
    <path d="M12 15.5C 12 12.8748 12.0281 12 15.5 12C 18.9719 12 19 12.8748 19 15.5C 19 18.1252 19.0111 19 15.5 19C 11.9889 19 12 18.1252 12 15.5z" stroke="#DD0077" stroke-width="2" stroke-linecap="square" fill="none"/>
</g>
</svg>