<svg xmlns="http://www.w3.org/2000/svg" xmlns:xlink="http://www.w3.org/1999/xlink" id="body_1" width="24" height="24">

<g transform="matrix(1 0 0 1 0 0)">
    <path d="M5 6.64513L5 5.551C 5 3.43076 5 2.37064 5.67965 1.77328C 6.35931 1.17591 7.41066 1.31197 9.51337 1.58408L9.51337 1.58408L16.77 2.52318C 19.2611 2.84556 20.5067 3.00675 21.2533 3.85626C 22 4.70577 22 5.9617 22 8.47356L22 8.47356L22 15.5264C 22 18.0383 22 19.2942 21.2533 20.1437C 20.5067 20.9933 19.2611 21.1544 16.77 21.4768L16.77 21.4768L9.51337 22.4159C 7.41066 22.688 6.35931 22.8241 5.67965 22.2267C 5 21.6294 5 20.5692 5 18.449L5 18.449L5 17.5726" stroke="#C41963" stroke-width="2" fill="none"/>
    <path d="M15 12L15.8107 11.4145L16.2335 12L15.8107 12.5855L15 12zM1 13C 0.447715 13 0 12.5523 0 12C 0 11.4477 0.447715 11 1 11L1 11L1 13zM11.4773 5.41451L15.8107 11.4145L14.1893 12.5855L9.85599 6.58549L11.4773 5.41451zM15.8107 12.5855L11.4773 18.5855L9.85599 17.4145L14.1893 11.4145L15.8107 12.5855zM15 13L1 13L1 11L15 11L15 13z" stroke="none" fill="#C41963" fill-rule="nonzero"/>
</g>
</svg>