<svg xmlns="http://www.w3.org/2000/svg" xmlns:xlink="http://www.w3.org/1999/xlink" id="body_1" width="24" height="24">

<g transform="matrix(1 0 0 1 0 0)">
    <path d="M18.1111 8.14286L18.1111 5.57143C 18.1111 4.88944 17.8536 4.23539 17.3951 3.75315C 16.9367 3.27092 16.315 3 15.6667 3L15.6667 3L3.44444 3C 2.79614 3 2.17438 3.27092 1.71596 3.75315C 1.25754 4.23539 1 4.88944 1 5.57143L1 5.57143L1 13.2857C 1 13.9677 1.25754 14.6218 1.71596 15.104C 2.17438 15.5862 2.79614 15.8571 3.44444 15.8571L3.44444 15.8571L5.88889 15.8571L18.1111 8.14286zM8.33333 21L20.5556 21C 21.2039 21 21.8256 20.7291 22.284 20.2468C 22.7425 19.7646 23 19.1106 23 18.4286L23 18.4286L23 10.7143C 23 10.0323 22.7425 9.37825 22.284 8.89601C 21.8256 8.41377 21.2039 8.14286 20.5556 8.14286L20.5556 8.14286L8.33333 8.14286C 7.68503 8.14286 7.06327 8.41377 6.60485 8.89601C 6.14643 9.37825 5.88889 10.0323 5.88889 10.7143L5.88889 10.7143L5.88889 18.4286C 5.88889 19.1106 6.14643 19.7646 6.60485 20.2468C 7.06327 20.7291 7.68503 21 8.33333 21zM16.8889 14.5714C 16.8889 15.2534 16.6313 15.9075 16.1729 16.3897C 15.7145 16.8719 15.0928 17.1429 14.4444 17.1429C 13.7961 17.1429 13.1744 16.8719 12.716 16.3897C 12.2575 15.9075 12 15.2534 12 14.5714C 12 13.8894 12.2575 13.2354 12.716 12.7532C 13.1744 12.2709 13.7961 12 14.4444 12C 15.0928 12 15.7145 12.2709 16.1729 12.7532C 16.6313 13.2354 16.8889 13.8894 16.8889 14.5714z" stroke="#D70563" stroke-width="2" stroke-linecap="square" fill="none"/>
</g>
</svg>