<svg xmlns="http://www.w3.org/2000/svg" xmlns:xlink="http://www.w3.org/1999/xlink" id="body_1" width="24" height="24">

<g transform="matrix(1 0 0 1 0 0)">
    <path d="M15 9C 15 9.828427 14.707108 10.535534 14.121321 11.121321C 13.535534 11.707108 12.828427 12 12 12C 11.171574 12 10.464466 11.707108 9.878679 11.121321C 9.292893 10.535534 9 9.828427 9 9C 9 8.171574 9.292893 7.4644666 9.878679 6.8786798C 10.464466 6.2928934 11.171574 6 12 6C 12.828427 6 13.535534 6.2928934 14.121321 6.8786798C 14.707108 7.4644666 15 8.171574 15 9C 15 9.03491 14.999392 9.06981 14.998173 9.104698" stroke="#B9224F" stroke-width="2" stroke-linecap="square" fill="none"/>
    <path d="M23 12C 23 15.037566 21.92606 17.630291 19.778175 19.778175C 17.630291 21.92606 15.037566 23 12 23C 8.962434 23 6.369709 21.92606 4.2218256 19.778175C 2.073942 17.630291 1 15.037566 1 12C 1 8.962434 2.073942 6.369709 4.2218256 4.2218256C 6.369709 2.073942 8.962434 1 12 1C 15.037566 1 17.630291 2.073942 19.778175 4.2218256C 21.92606 6.369709 23 8.962434 23 12C 23 12.128004 22.997768 12.255969 22.9933 12.383894" stroke="#B9224F" stroke-width="2" fill="none"/>
    <path d="M19 20C 18.5871 18.8525 17.6773 17.8384 16.4117 17.1152C 15.146 16.392 13.5953 16 12 16C 10.4047 16 8.85398 16.392 7.58835 17.1152C 6.32271 17.8384 5.41289 18.8525 5 20" stroke="#B9224F" stroke-width="2" stroke-linecap="square" fill="none"/>
</g>
</svg>