<svg xmlns="http://www.w3.org/2000/svg" xmlns:xlink="http://www.w3.org/1999/xlink" id="body_1" width="24" height="24">

<defs>
        <clipPath id="1">

            <path clip-rule="evenodd" d="M0 0L24 0L24 24L0 24z"/>        </clipPath>
</defs>

<g transform="matrix(1 0 0 1 0 0)">
	<g clip-path="url(#1)">
        <path d="M4.46098 11L2.1 11C 1.49249 11 1 10.5026 1 9.88889L1 9.88889L1 2.11111C 1 1.49746 1.49249 1 2.1 1L2.1 1L21.9 1C 22.5075 1 23 1.49746 23 2.11111L23 2.11111L23 9.88889C 23 10.5026 22.5075 11 21.9 11L21.9 11L19.8207 11" stroke="#B72478" stroke-width="2" fill="none"/>
        <path d="M19.4286 6L4.57143 6C 4.25583 6 4 6.24551 4 6.54839L4 6.54839L4 22.4516C 4 22.7545 4.25583 23 4.57143 23L4.57143 23L19.4286 23C 19.7442 23 20 22.7545 20 22.4516L20 22.4516L20 6.54839C 20 6.24551 19.7442 6 19.4286 6z" stroke="#B72478" stroke-width="2" fill="none"/>
        <path d="M15 16.3794C 15 16.8153 14.8949 17.2259 14.6848 17.6114C 14.4825 17.9886 14.179 18.3029 13.7744 18.5543C 13.3775 18.7973 12.9066 18.9398 12.3619 18.9817L12.3619 18.9817L12.3619 20L11.6148 20L11.6148 18.9691C 10.8366 18.8937 10.2101 18.6423 9.73537 18.2149C 9.2607 17.779 9.0156 17.1924 9 16.4549L9 16.4549L10.751 16.4549C 10.7977 17.0583 11.0856 17.4229 11.6148 17.5486L11.6148 17.5486L11.6148 15.1474C 11.0545 14.9966 10.6031 14.8457 10.2607 14.6949C 9.9183 14.544 9.62258 14.301 9.37358 13.9657C 9.1245 13.6304 9 13.1737 9 12.5954C 9 11.8663 9.24128 11.2713 9.72375 10.8103C 10.214 10.3493 10.8443 10.0853 11.6148 10.0183L11.6148 10.0183L11.6148 9L12.3619 9L12.3619 10.0183C 13.109 10.0853 13.7043 10.3284 14.1479 10.7474C 14.5992 11.1665 14.8522 11.7447 14.9066 12.4823L14.9066 12.4823L13.144 12.4823C 13.1206 12.2393 13.0389 12.0297 12.8988 11.8537C 12.7665 11.6693 12.5876 11.5394 12.3619 11.464L12.3619 11.464L12.3619 13.84C 12.9455 13.9993 13.4047 14.1543 13.7393 14.3051C 14.0817 14.4476 14.3774 14.6864 14.6264 15.0217C 14.8755 15.3486 15 15.8011 15 16.3794zM10.7043 12.5074C 10.7043 12.784 10.7821 13.0103 10.9378 13.1863C 11.0934 13.3539 11.3191 13.4922 11.6148 13.6011L11.6148 13.6011L11.6148 11.4263C 11.3346 11.4682 11.1128 11.5813 10.9494 11.7657C 10.786 11.9501 10.7043 12.1973 10.7043 12.5074zM12.3619 17.5737C 12.6576 17.515 12.8872 17.3851 13.0506 17.184C 13.2218 16.9829 13.3074 16.7398 13.3074 16.4549C 13.3074 16.1783 13.2256 15.9562 13.0622 15.7886C 12.8988 15.621 12.6654 15.4827 12.3619 15.3737L12.3619 15.3737L12.3619 17.5737z" stroke="none" fill="#B72478" fill-rule="nonzero"/>
	</g>
</g>
</svg>